HIERARCHY
ROOT joint_0
{
	OFFSET 0.000000 0.000000 0.000000
	CHANNELS 6 Xposition Yposition Zposition Zrotation Yrotation Xrotation 
	JOINT joint_1
	{
		OFFSET 11.612000 -0.419000 106.198000
		CHANNELS 3 Zrotation Yrotation Xrotation
		JOINT joint_2
		{
			OFFSET -1.708000 -1.022000 97.564090
			CHANNELS 3 Zrotation Yrotation Xrotation
			JOINT joint_3
			{
				OFFSET -4.121000 -1.538000 97.375000
				CHANNELS 3 Zrotation Yrotation Xrotation
				JOINT joint_4
				{
					OFFSET 5.442000 -2.123000 132.795900
					CHANNELS 3 Zrotation Yrotation Xrotation
					JOINT joint_5
					{
						OFFSET 21.935000 0.195000 82.975100
						CHANNELS 3 Zrotation Yrotation Xrotation
						End Site
						{
							OFFSET 0.000000 0.000000 0.000000
						}
					}
				}
				JOINT joint_6
				{
					OFFSET 4.262000 -30.048000 73.899900
					CHANNELS 3 Zrotation Yrotation Xrotation
					JOINT joint_7
					{
						OFFSET 9.731000 -136.810010 -21.963010
						CHANNELS 3 Zrotation Yrotation Xrotation
						JOINT joint_8
						{
							OFFSET 33.360000 -35.709000 -267.597900
							CHANNELS 3 Zrotation Yrotation Xrotation
							JOINT joint_9
							{
								OFFSET 36.156000 -29.759000 -240.558040
								CHANNELS 3 Zrotation Yrotation Xrotation
								End Site
								{
									OFFSET 0.000000 0.000000 0.000000
								}
							}
						}
					}
				}
				JOINT joint_10
				{
					OFFSET 2.027000 27.734000 74.914920
					CHANNELS 3 Zrotation Yrotation Xrotation
					JOINT joint_11
					{
						OFFSET -5.183000 136.784000 -23.604980
						CHANNELS 3 Zrotation Yrotation Xrotation
						JOINT joint_12
						{
							OFFSET 29.806000 37.229000 -267.809940
							CHANNELS 3 Zrotation Yrotation Xrotation
							JOINT joint_13
							{
								OFFSET 36.890000 46.524990 -237.772030
								CHANNELS 3 Zrotation Yrotation Xrotation
								End Site
								{
									OFFSET 0.000000 0.000000 0.000000
								}
							}
						}
					}
				}
			}
		}
	}
	JOINT joint_14
	{
		OFFSET -7.290000 -102.873990 -124.314940
		CHANNELS 3 Zrotation Yrotation Xrotation
		JOINT joint_15
		{
			OFFSET -15.466000 -19.909010 -438.533020
			CHANNELS 3 Zrotation Yrotation Xrotation
			JOINT joint_16
			{
				OFFSET -26.899000 -18.922000 -464.797000
				CHANNELS 3 Zrotation Yrotation Xrotation
				JOINT joint_17
				{
					OFFSET 179.329000 -12.011000 -84.174000
					CHANNELS 3 Zrotation Yrotation Xrotation
					End Site
					{
						OFFSET 0.000000 0.000000 0.000000
					}
				}
			}
		}
	}
	JOINT joint_18
	{
		OFFSET -6.225000 101.546000 -125.479980
		CHANNELS 3 Zrotation Yrotation Xrotation
		JOINT joint_19
		{
			OFFSET -13.973000 7.996000 -438.963010
			CHANNELS 3 Zrotation Yrotation Xrotation
			JOINT joint_20
			{
				OFFSET -44.294000 5.716000 -463.813970
				CHANNELS 3 Zrotation Yrotation Xrotation
				JOINT joint_21
				{
					OFFSET 178.505000 -4.689000 -85.139000
					CHANNELS 3 Zrotation Yrotation Xrotation
					End Site
					{
						OFFSET 0.000000 0.000000 0.000000
					}
				}
			}
		}
	}
}
MOTION
Frames: 18
Frame Time: 0.016667
-3460.825439 914.891174 1127.708008 6.391113 -3.500550 0.383684 -0.612314 8.581314 0.691130 -0.611740 -1.780820 -0.203079 -0.539991 1.699187 0.065736 -0.221529 -0.300302 0.831560 0.000000 0.000000 0.000000 -4.370855 -2.010385 1.140650 0.076217 -3.018929 -3.004855 1.658081 -6.882959 5.539807 0.000000 0.000000 0.000000 -0.657750 -2.953796 1.097431 -0.886905 -2.878713 3.943220 -3.223070 -8.584996 -9.635332 0.000000 0.000000 0.000000 -2.141911 2.275957 0.183742 -2.041616 0.951556 -0.890315 -1.900322 -2.294849 -1.042900 0.000000 0.000000 0.000000 6.263185 1.122377 0.277002 6.218747 -0.835096 0.596062 6.039770 1.427079 2.922252 0.000000 0.000000 0.000000 
-3459.559082 914.726990 1127.697998 6.450500 -3.394575 0.397230 -0.594681 8.614789 0.711316 -0.591056 -1.801107 -0.193256 -0.519082 1.719362 0.056576 -0.208995 -0.430341 0.788205 0.000000 0.000000 0.000000 -4.450093 -1.810239 1.098711 0.043122 -2.822292 -2.994081 1.717931 -7.339238 5.599535 0.000000 0.000000 0.000000 -0.611123 -2.871187 1.025785 -0.886071 -2.794137 4.113560 -3.314495 -8.898908 -9.800913 0.000000 0.000000 0.000000 -2.220261 2.247345 0.175049 -2.121754 0.951057 -0.884461 -1.971177 -2.453995 -1.086803 0.000000 0.000000 0.000000 6.246769 1.039734 0.296874 6.205871 -0.744225 0.580987 6.022077 1.229267 2.908514 0.000000 0.000000 0.000000 
-3457.902832 914.513550 1127.724976 6.525411 -3.254307 0.416485 -0.574637 8.645287 0.736016 -0.566968 -1.818270 -0.173866 -0.495582 1.734981 0.038457 -0.191021 -0.597987 0.725878 0.000000 0.000000 0.000000 -4.536474 -1.529236 1.026177 -0.001593 -2.538792 -2.939775 1.788885 -7.954993 5.618054 0.000000 0.000000 0.000000 -0.567086 -2.759319 0.936461 -0.880652 -2.675756 4.346153 -3.429330 -9.303142 -10.001438 0.000000 0.000000 0.000000 -2.336343 2.200832 0.157504 -2.241547 0.962315 -0.871149 -2.077236 -2.671125 -1.151098 0.000000 0.000000 0.000000 6.227744 0.923848 0.324237 6.191933 -0.611363 0.560605 6.001372 0.958016 2.891362 0.000000 0.000000 0.000000 
-3455.880615 914.364075 1127.803955 6.623253 -3.070815 0.435856 -0.558515 8.667861 0.783955 -0.546375 -1.803099 -0.169312 -0.475542 1.723680 0.031592 -0.170329 -0.872644 0.656167 0.000000 0.000000 0.000000 -4.587464 -1.077341 0.845078 -0.086029 -2.061349 -2.834987 1.977114 -9.373916 5.849275 0.000000 0.000000 0.000000 -0.537825 -2.476985 0.888277 -0.887218 -2.386689 4.562589 -3.687390 -10.334201 -10.384305 0.000000 0.000000 0.000000 -2.456267 2.128610 0.119469 -2.370006 1.018315 -0.830685 -2.178638 -3.110916 -1.228144 0.000000 0.000000 0.000000 6.196593 0.773087 0.359693 6.167602 -0.432429 0.534140 5.967762 0.504738 2.863117 0.000000 0.000000 0.000000 
-3453.234131 914.392334 1127.917969 6.750756 -2.835303 0.452680 -0.533493 8.506463 0.859623 -0.518950 -1.641518 -0.189267 -0.451913 1.591865 0.045343 -0.151687 -1.307759 0.596997 0.000000 0.000000 0.000000 -4.561459 -0.311473 0.621851 -0.267386 -1.244951 -2.809458 2.342119 -11.987259 6.515486 0.000000 0.000000 0.000000 -0.614905 -1.882818 0.831521 -0.887564 -1.762699 4.776101 -4.131856 -12.253272 -10.975977 0.000000 0.000000 0.000000 -2.555514 2.046300 0.047304 -2.483554 1.136460 -0.747885 -2.243856 -3.932341 -1.313799 0.000000 0.000000 0.000000 6.143362 0.592444 0.405765 6.123545 -0.185705 0.501385 5.911074 -0.246084 2.815892 0.000000 0.000000 0.000000 
-3449.951660 914.556763 1128.062012 6.904566 -2.552301 0.469725 -0.499136 8.163749 0.954347 -0.484378 -1.351367 -0.221537 -0.424709 1.352664 0.068786 -0.132858 -1.877575 0.536000 0.000000 0.000000 0.000000 -4.461356 0.728117 0.468546 -0.563193 -0.140882 -2.934020 2.806833 -15.525791 7.482214 0.000000 0.000000 0.000000 -0.791691 -1.039733 0.694721 -0.860459 -0.857251 5.062637 -4.694188 -14.838138 -11.688136 0.000000 0.000000 0.000000 -2.646362 1.958774 -0.054458 -2.593184 1.301821 -0.630564 -2.287705 -5.065463 -1.410266 0.000000 0.000000 0.000000 6.072389 0.384437 0.462294 6.064111 0.124841 0.462798 5.836433 -1.246072 2.753563 0.000000 0.000000 0.000000 
-3447.260986 914.672424 1128.357056 7.077769 -2.230558 0.483759 -0.528736 8.408132 1.100447 -0.505192 -1.327426 -0.275367 -0.441902 1.343700 0.105419 -0.101328 -2.563870 0.426964 0.000000 0.000000 0.000000 -4.329485 1.680336 0.103246 -0.907681 0.917911 -2.843565 3.328099 -20.224483 8.419348 0.000000 0.000000 0.000000 -0.749782 -0.179730 0.674375 -0.848117 0.032420 5.346180 -5.462251 -18.597400 -12.724766 0.000000 0.000000 0.000000 -2.737874 1.769126 -0.160053 -2.712072 1.530876 -0.488481 -2.333232 -6.273282 -1.512486 0.000000 0.000000 0.000000 5.999140 0.114388 0.520939 6.003045 0.416610 0.416257 5.760051 -2.295293 2.689151 0.000000 0.000000 0.000000 
-3446.557861 914.681458 1128.957031 7.265350 -1.875965 0.488925 -0.715659 10.035499 1.371208 -0.655582 -1.901295 -0.389640 -0.561545 1.836769 0.183036 -0.043732 -3.397553 0.236408 0.000000 0.000000 0.000000 -4.163806 2.218047 -0.597103 -1.242254 1.621064 -2.344798 3.912957 -26.456654 9.037469 0.000000 0.000000 0.000000 -0.143834 0.467530 0.714911 -0.816438 0.644278 5.747995 -6.496491 -24.109067 -14.318491 0.000000 0.000000 0.000000 -2.833491 1.373945 -0.268953 -2.849839 1.854473 -0.306715 -2.392855 -7.431555 -1.618089 0.000000 0.000000 0.000000 5.933440 -0.282305 0.570955 5.949753 0.656401 0.359921 5.691944 -3.279825 2.630370 0.000000 0.000000 0.000000 
-3447.386475 914.654602 1129.816040 7.468345 -1.460468 0.492042 -1.041272 12.619756 1.724763 -0.898741 -2.628721 -0.540971 -0.757992 2.447420 0.289468 0.033989 -4.355769 0.010858 0.000000 0.000000 0.000000 -4.020003 2.489951 -1.420794 -1.565353 2.087880 -1.683926 4.591644 -33.993823 9.486223 0.000000 0.000000 0.000000 0.928353 0.969923 0.628321 -0.654672 1.110330 6.375657 -7.657512 -31.077516 -16.333269 0.000000 0.000000 0.000000 -2.927973 0.777031 -0.396924 -3.001088 2.273369 -0.080847 -2.456584 -8.629946 -1.728491 0.000000 0.000000 0.000000 5.869000 -0.824098 0.605051 5.900012 0.881232 0.297340 5.627112 -4.270311 2.572885 0.000000 0.000000 0.000000 
-3447.094727 914.303223 1130.608032 7.681302 -0.964261 0.517755 -1.318291 14.720377 1.923515 -1.069753 -2.853256 -0.600653 -0.901635 2.644516 0.340431 0.111492 -5.262418 -0.184172 0.000000 0.000000 0.000000 -4.075166 3.010417 -2.429322 -1.919948 2.819032 -1.043183 5.320006 -42.029491 10.298393 0.000000 0.000000 0.000000 1.827703 1.681453 0.802049 -0.376758 1.879007 6.918302 -8.729730 -38.633114 -18.220076 0.000000 0.000000 0.000000 -3.023763 0.129809 -0.478824 -3.153445 2.711841 0.092186 -2.525899 -9.762638 -1.837220 0.000000 0.000000 0.000000 5.805922 -1.341003 0.633389 5.851239 0.996159 0.233576 5.564177 -5.212494 2.517371 0.000000 0.000000 0.000000 
-3443.631836 913.323486 1131.109985 7.891152 -0.465222 0.567898 -1.397254 15.721720 1.850042 -1.061173 -2.793739 -0.533946 -0.891858 2.604365 0.298269 0.184762 -6.185877 -0.371697 0.000000 0.000000 0.000000 -4.411590 4.158079 -3.604221 -2.362841 4.170195 -0.551910 5.989997 -50.330778 11.744479 0.000000 0.000000 0.000000 2.080277 2.891401 1.487013 -0.102575 3.303021 7.299094 -9.630042 -46.551504 -19.648275 0.000000 0.000000 0.000000 -3.131579 -0.332037 -0.436748 -3.298984 3.084854 0.129314 -2.606044 -10.746066 -1.940907 0.000000 0.000000 0.000000 5.751034 -1.572812 0.705646 5.802164 0.884056 0.159269 5.501412 -6.074649 2.463931 0.000000 0.000000 0.000000 
-3437.992432 911.824768 1131.442993 8.100541 0.016199 0.630434 -1.351678 16.200887 1.598763 -0.936738 -2.732954 -0.391227 -0.777595 2.556695 0.188394 0.263166 -7.205481 -0.584310 0.000000 0.000000 0.000000 -4.985772 5.735228 -4.760385 -2.814534 5.901390 -0.305846 6.554170 -59.145042 13.548046 0.000000 0.000000 0.000000 1.949001 4.477165 2.377013 0.059270 5.205453 7.802219 -10.368728 -55.110615 -20.715323 0.000000 0.000000 0.000000 -3.251466 -0.648481 -0.292037 -3.442640 3.417241 0.066599 -2.697285 -11.616408 -2.041986 0.000000 0.000000 0.000000 5.705538 -1.567380 0.825406 5.753956 0.577308 0.069075 5.440126 -6.873374 2.412566 0.000000 0.000000 0.000000 
-3431.602051 910.308533 1131.656006 8.381252 0.489781 0.712567 -1.327435 16.409898 1.357171 -0.838709 -2.665988 -0.267953 -0.687829 2.500091 0.091013 0.332676 -8.098504 -0.781012 0.000000 0.000000 0.000000 -5.371227 7.388479 -5.757912 -3.390094 7.642287 -0.747322 6.857989 -68.102688 15.590410 0.000000 0.000000 0.000000 1.670647 6.169835 2.971294 0.117461 7.180295 8.651312 -10.832300 -63.674214 -21.165125 0.000000 0.000000 0.000000 -3.377728 -0.918722 -0.144968 -3.590330 3.750832 -0.012840 -2.797448 -12.388910 -2.140377 0.000000 0.000000 0.000000 5.651184 -1.503910 0.932181 5.694144 0.226140 -0.018354 5.370692 -7.597916 2.358937 0.000000 0.000000 0.000000 
-3425.396484 909.177917 1131.801025 8.796700 0.972555 0.827412 -1.426486 16.430161 1.262774 -0.870111 -2.555670 -0.248913 -0.713898 2.401312 0.086710 0.379499 -8.666472 -0.922809 0.000000 0.000000 0.000000 -5.130772 9.008885 -6.593706 -4.413338 9.236719 -2.291389 6.683877 -77.410270 17.828391 0.000000 0.000000 0.000000 1.230433 7.892145 3.015019 0.213250 9.040260 9.819801 -10.968065 -71.989928 -20.843449 0.000000 0.000000 0.000000 -3.506563 -1.245021 -0.071027 -3.749259 4.159796 -0.054298 -2.905442 -13.079911 -2.236638 0.000000 0.000000 0.000000 5.570960 -1.514676 0.968705 5.609740 -0.066846 -0.087441 5.281133 -8.253404 2.297448 0.000000 0.000000 0.000000 
-3418.860596 908.247253 1131.864014 9.320617 1.448121 0.973100 -1.598000 16.216471 1.241127 -0.981187 -2.457794 -0.283306 -0.807944 2.306677 0.133936 0.412969 -9.021862 -1.043334 0.000000 0.000000 0.000000 -4.378797 10.793928 -7.217924 -5.976780 10.724452 -4.847645 5.902526 -87.335367 20.033676 0.000000 0.000000 0.000000 0.485722 9.815094 2.693237 0.358248 10.920223 11.149416 -10.825148 -80.339784 -19.777220 0.000000 0.000000 0.000000 -3.641995 -1.577131 -0.033976 -3.918441 4.626768 -0.085013 -3.022828 -13.679313 -2.330746 0.000000 0.000000 0.000000 5.471172 -1.518712 0.962454 5.504698 -0.360351 -0.148203 5.174885 -8.840262 2.229651 0.000000 0.000000 0.000000 
-3411.819092 907.165710 1131.718994 9.883592 1.898930 1.125141 -1.782487 15.944348 1.234865 -1.096453 -2.391935 -0.312185 -0.899889 2.237337 0.172741 0.454576 -9.306592 -1.167410 0.000000 0.000000 0.000000 -3.683111 12.367696 -7.622849 -7.629417 11.790602 -7.454308 -175.120975 -83.465290 -158.201836 0.000000 0.000000 0.000000 -0.179795 11.626897 2.266282 0.509320 12.545027 12.676017 -10.590607 -88.230121 -18.090304 0.000000 0.000000 0.000000 -3.782203 -1.778844 0.007556 -4.080342 4.948816 -0.108556 -3.142751 -14.179915 -2.419139 0.000000 0.000000 0.000000 5.369057 -1.482119 0.987893 5.397595 -0.659064 -0.220307 5.068133 -9.341058 2.163422 0.000000 0.000000 0.000000 
-3404.128418 905.657410 1131.296997 10.462977 2.337855 1.273825 -1.959130 15.735639 1.203936 -1.178686 -2.370840 -0.306308 -0.951808 2.211326 0.176565 0.519434 -9.640035 -1.306091 0.000000 0.000000 0.000000 -3.394133 13.325979 -8.060568 -9.038767 12.368696 -9.319191 -175.892813 -75.578976 -156.749289 0.000000 0.000000 0.000000 -0.426779 13.100487 1.971575 0.696917 13.756453 14.549621 169.641434 -84.533011 164.406923 0.000000 0.000000 0.000000 -3.934954 -1.761469 0.079624 -4.231449 4.964510 -0.123571 -3.267272 -14.654511 -2.507748 0.000000 0.000000 0.000000 5.275290 -1.375375 1.100585 5.299882 -1.026996 -0.337806 4.970566 -9.744567 2.103271 0.000000 0.000000 0.000000 
-3395.839600 903.848938 1130.645020 11.085988 2.769507 1.429907 -2.154387 15.526087 1.164061 -1.257061 -2.389786 -0.289709 -0.983376 2.219701 0.172091 0.602673 -9.969958 -1.445308 0.000000 0.000000 0.000000 -3.254630 13.730314 -8.625200 -10.451732 12.624625 -10.745742 -176.476852 -68.344086 -155.409988 0.000000 0.000000 0.000000 -0.414646 14.295922 1.767813 1.040302 14.638141 16.742825 169.939236 -77.843618 167.744209 0.000000 0.000000 0.000000 -4.101668 -1.574047 0.170834 -4.378115 4.749428 -0.131974 -3.399689 -15.102062 -2.597885 0.000000 0.000000 0.000000 5.182147 -1.208498 1.275744 5.204643 -1.465285 -0.497139 4.877565 -10.051012 2.046927 0.000000 0.000000 0.000000 
